<svg width="24" height="23" viewBox="0 0 24 23" fill="none" xmlns="http://www.w3.org/2000/svg">
<g clip-path="url(#clip0_54_158)">
<path d="M0.5 11.5C0.5 8.45001 1.7116 5.52494 3.86827 3.36827C6.02494 1.2116 8.95001 0 12 0C15.05 0 17.9751 1.2116 20.1317 3.36827C22.2884 5.52494 23.5 8.45001 23.5 11.5C23.5 14.55 22.2884 17.4751 20.1317 19.6317C17.9751 21.7884 15.05 23 12 23C8.95001 23 6.02494 21.7884 3.86827 19.6317C1.7116 17.4751 0.5 14.55 0.5 11.5ZM11.2812 1.54819C10.3181 1.84144 9.36219 2.72694 8.56869 4.21475C8.36312 4.6 8.17194 5.01975 8.00087 5.46825C9.01431 5.69394 10.1169 5.83769 11.2812 5.88081V1.54819ZM6.60794 5.08731C6.81206 4.53531 7.04494 4.01781 7.29938 3.53769C7.54793 3.0677 7.83497 2.61911 8.15756 2.1965C6.93377 2.70365 5.82198 3.44712 4.88581 4.38438C5.40619 4.64887 5.98263 4.88606 6.60794 5.08875V5.08731ZM5.54419 10.7812C5.59594 9.24312 5.81444 7.78119 6.17094 6.45725C5.39282 6.20841 4.63965 5.88741 3.92125 5.49844C2.77635 7.03563 2.09681 8.86919 1.96337 10.7812H5.54275H5.54419ZM7.55669 6.84106C7.2178 8.12873 7.02492 9.45044 6.98169 10.7812H11.2812V7.31831C9.97312 7.27519 8.71819 7.10987 7.55669 6.84106ZM12.7188 7.31688V10.7812H17.0169C16.9741 9.45049 16.7817 8.12878 16.4433 6.84106C15.2818 7.10987 14.0269 7.27375 12.7188 7.31831V7.31688ZM6.98313 12.2188C7.03344 13.6376 7.23612 14.9701 7.55669 16.1589C8.78008 15.8813 10.0273 15.722 11.2812 15.6831V12.2188H6.98313ZM12.7188 12.2188V15.6817C14.0269 15.7248 15.2818 15.8901 16.4433 16.1589C16.7639 14.9701 16.9666 13.6376 17.0183 12.2188H12.7188ZM8.00087 17.5317C8.17338 17.9802 8.36312 18.4 8.56869 18.7852C9.36219 20.2731 10.3196 21.1571 11.2812 21.4518V17.1206C10.1169 17.1637 9.01431 17.3075 8.00087 17.5332V17.5317ZM8.159 20.8035C7.83589 20.381 7.54837 19.9324 7.29938 19.4623C7.03462 18.9613 6.80363 18.4431 6.60794 17.9112C6.01659 18.1013 5.44084 18.3368 4.88581 18.6156C5.82198 19.5529 6.93377 20.2964 8.15756 20.8035H8.159ZM6.17094 16.5428C5.79773 15.13 5.58697 13.6793 5.54275 12.2188H1.96337C2.09673 14.1308 2.77627 15.9644 3.92125 17.5016C4.59688 17.1307 5.35156 16.8087 6.17094 16.5428ZM15.8424 20.8035C17.0656 20.2966 18.1769 19.5537 19.1127 18.6171C18.5582 18.3383 17.9829 18.1028 17.3921 17.9127C17.1963 18.444 16.9653 18.9617 16.7006 19.4623C16.4521 19.9323 16.1651 20.3809 15.8424 20.8035ZM12.7188 17.1192V21.4518C13.6819 21.1586 14.6378 20.2731 15.4313 18.7852C15.6369 18.4 15.8281 17.9802 15.9991 17.5317C14.9204 17.2952 13.8224 17.1576 12.7188 17.1206V17.1192ZM17.8291 16.5428C18.6484 16.8087 19.4031 17.1307 20.0788 17.5016C21.2237 15.9644 21.9033 14.1308 22.0366 12.2188H18.4572C18.413 13.6793 18.2023 15.13 17.8291 16.5428ZM22.0366 10.7812C21.9033 8.86917 21.2237 7.03559 20.0788 5.49844C19.4031 5.86931 18.6484 6.19131 17.8291 6.45725C18.1856 7.77975 18.4041 9.24312 18.4572 10.7812H22.0366ZM16.7006 3.53769C16.9551 4.01781 17.1879 4.53531 17.3935 5.08731C17.9839 4.8972 18.5587 4.6617 19.1127 4.38294C18.1767 3.44687 17.0655 2.7044 15.8424 2.19794C16.1558 2.60475 16.4433 3.05612 16.7006 3.53769ZM15.9991 5.46825C15.8358 5.03914 15.6462 4.62051 15.4313 4.21475C14.6378 2.72694 13.6819 1.84288 12.7188 1.54819V5.87938C13.8831 5.83625 14.9857 5.6925 15.9991 5.46681V5.46825Z" fill="white"/>
</g>
<defs>
<clipPath id="clip0_54_158">
<rect width="23" height="23" fill="white" transform="translate(0.5)"/>
</clipPath>
</defs>
</svg>
