<svg width="19" height="18" viewBox="0 0 19 18" fill="none" xmlns="http://www.w3.org/2000/svg">
<g clip-path="url(#clip0_117_6)">
<path d="M12.7108 8.03928C12.7631 8.09153 12.8047 8.1536 12.8331 8.22194C12.8614 8.29028 12.876 8.36354 12.876 8.43753C12.876 8.51152 12.8614 8.58478 12.8331 8.65312C12.8047 8.72145 12.7631 8.78353 12.7108 8.83578L9.33576 12.2108C9.28351 12.2632 9.22144 12.3047 9.1531 12.3331C9.08476 12.3614 9.0115 12.376 8.93751 12.376C8.86352 12.376 8.79026 12.3614 8.72192 12.3331C8.65358 12.3047 8.59151 12.2632 8.53926 12.2108L6.85176 10.5233C6.79946 10.471 6.75797 10.4089 6.72967 10.3406C6.70137 10.2722 6.6868 10.199 6.6868 10.125C6.6868 10.0511 6.70137 9.97783 6.72967 9.9095C6.75797 9.84117 6.79946 9.77908 6.85176 9.72678C6.95738 9.62116 7.10064 9.56182 7.25001 9.56182C7.32397 9.56182 7.39721 9.57639 7.46554 9.60469C7.53387 9.63299 7.59596 9.67448 7.64826 9.72678L8.93751 11.0172L11.9143 8.03928C11.9665 7.98689 12.0286 7.94533 12.0969 7.91698C12.1653 7.88862 12.2385 7.87402 12.3125 7.87402C12.3865 7.87402 12.4598 7.88862 12.5281 7.91698C12.5964 7.94533 12.6585 7.98689 12.7108 8.03928Z" fill="#B8B8B8"/>
<path d="M4.4375 0C4.58668 0 4.72976 0.0592632 4.83525 0.164752C4.94074 0.270242 5 0.413316 5 0.5625V1.125H14V0.5625C14 0.413316 14.0593 0.270242 14.1648 0.164752C14.2702 0.0592632 14.4133 0 14.5625 0C14.7117 0 14.8548 0.0592632 14.9602 0.164752C15.0657 0.270242 15.125 0.413316 15.125 0.5625V1.125H16.25C16.8467 1.125 17.419 1.36205 17.841 1.78401C18.2629 2.20597 18.5 2.77826 18.5 3.375V15.75C18.5 16.3467 18.2629 16.919 17.841 17.341C17.419 17.7629 16.8467 18 16.25 18H2.75C2.15326 18 1.58097 17.7629 1.15901 17.341C0.737053 16.919 0.5 16.3467 0.5 15.75V3.375C0.5 2.77826 0.737053 2.20597 1.15901 1.78401C1.58097 1.36205 2.15326 1.125 2.75 1.125H3.875V0.5625C3.875 0.413316 3.93426 0.270242 4.03975 0.164752C4.14524 0.0592632 4.28832 0 4.4375 0V0ZM1.625 4.5V15.75C1.625 16.0484 1.74353 16.3345 1.9545 16.5455C2.16548 16.7565 2.45163 16.875 2.75 16.875H16.25C16.5484 16.875 16.8345 16.7565 17.0455 16.5455C17.2565 16.3345 17.375 16.0484 17.375 15.75V4.5H1.625Z" fill="#B8B8B8"/>
</g>
<defs>
<clipPath id="clip0_117_6">
<rect width="18" height="18" fill="white" transform="translate(0.5)"/>
</clipPath>
</defs>
</svg>
