<svg width="26" height="26" viewBox="0 0 26 26" fill="none" xmlns="http://www.w3.org/2000/svg">
<path fill-rule="evenodd" clip-rule="evenodd" d="M2.67475 10.7997C2.75023 10.7241 2.83989 10.664 2.9386 10.6231C3.03731 10.5821 3.14313 10.561 3.25 10.561C3.35687 10.561 3.4627 10.5821 3.56141 10.6231C3.66012 10.664 3.74978 10.7241 3.82525 10.7997L13 19.9761L22.1748 10.7997C22.3273 10.6472 22.5342 10.5615 22.75 10.5615C22.9658 10.5615 23.1727 10.6472 23.3253 10.7997C23.4778 10.9523 23.5635 11.1592 23.5635 11.375C23.5635 11.5907 23.4778 11.7977 23.3253 11.9502L13.5753 21.7002C13.4998 21.7759 13.4101 21.8359 13.3114 21.8769C13.2127 21.9179 13.1069 21.9389 13 21.9389C12.8931 21.9389 12.7873 21.9179 12.6886 21.8769C12.5899 21.8359 12.5002 21.7759 12.4248 21.7002L2.67475 11.9502C2.59909 11.8748 2.53906 11.7851 2.4981 11.6864C2.45713 11.5877 2.43605 11.4819 2.43605 11.375C2.43605 11.2681 2.45713 11.1623 2.4981 11.0636C2.53906 10.9649 2.59909 10.8752 2.67475 10.7997Z" fill="white"/>
<path fill-rule="evenodd" clip-rule="evenodd" d="M2.67475 4.29974C2.75023 4.22407 2.83989 4.16404 2.9386 4.12308C3.03731 4.08212 3.14313 4.06104 3.25 4.06104C3.35687 4.06104 3.4627 4.08212 3.56141 4.12308C3.66012 4.16404 3.74978 4.22407 3.82525 4.29974L13 13.4761L22.1748 4.29974C22.2503 4.22419 22.34 4.16427 22.4387 4.12339C22.5374 4.0825 22.6432 4.06146 22.75 4.06146C22.8568 4.06146 22.9626 4.0825 23.0613 4.12339C23.16 4.16427 23.2497 4.22419 23.3253 4.29974C23.4008 4.37528 23.4607 4.46496 23.5016 4.56366C23.5425 4.66237 23.5635 4.76815 23.5635 4.87499C23.5635 4.98182 23.5425 5.08761 23.5016 5.18631C23.4607 5.28501 23.4008 5.37469 23.3253 5.45024L13.5753 15.2002C13.4998 15.2759 13.4101 15.3359 13.3114 15.3769C13.2127 15.4179 13.1069 15.4389 13 15.4389C12.8931 15.4389 12.7873 15.4179 12.6886 15.3769C12.5899 15.3359 12.5002 15.2759 12.4248 15.2002L2.67475 5.45024C2.59909 5.37476 2.53906 5.2851 2.4981 5.18639C2.45713 5.08768 2.43605 4.98186 2.43605 4.87499C2.43605 4.76812 2.45713 4.66229 2.4981 4.56358C2.53906 4.46487 2.59909 4.37521 2.67475 4.29974Z" fill="white"/>
</svg>
