<svg width="24" height="24" viewBox="0 0 24 24" fill="none" xmlns="http://www.w3.org/2000/svg">
<path d="M7.07248 9.813L5.01448 11.871C4.1705 12.715 3.69635 13.8597 3.69635 15.0532C3.69635 16.2468 4.1705 17.3915 5.01448 18.2355C5.85847 19.0795 7.00316 19.5536 8.19673 19.5536C9.39031 19.5536 10.535 19.0795 11.379 18.2355L14.121 15.492C14.6299 14.983 15.0093 14.3593 15.2274 13.6733C15.4454 12.9873 15.4957 12.259 15.374 11.5496C15.2524 10.8402 14.9623 10.1702 14.5281 9.59611C14.094 9.02197 13.5284 8.56035 12.879 8.25L12 9.129C11.9107 9.2184 11.8331 9.31869 11.769 9.4275C12.2708 9.57175 12.7262 9.84447 13.0903 10.2187C13.4544 10.5929 13.7145 11.0557 13.845 11.5612C13.9754 12.0668 13.9717 12.5976 13.8341 13.1013C13.6965 13.6049 13.4298 14.064 13.0605 14.433L10.32 17.175C9.75706 17.7379 8.99357 18.0542 8.19748 18.0542C7.40139 18.0542 6.6379 17.7379 6.07498 17.175C5.51206 16.6121 5.19581 15.8486 5.19581 15.0525C5.19581 14.2564 5.51206 13.4929 6.07498 12.93L7.26448 11.742C7.09665 11.1131 7.03181 10.4611 7.07248 9.8115V9.813Z" fill="white"/>
<path d="M9.87901 7.00801C9.37007 7.51702 8.99066 8.1407 8.77263 8.82669C8.55459 9.51268 8.5043 10.241 8.62597 10.9504C8.74764 11.6599 9.03772 12.3298 9.47187 12.9039C9.90601 13.478 10.4715 13.9397 11.121 14.25L12.2835 13.086C11.7749 12.9496 11.3112 12.6817 10.939 12.3093C10.5667 11.9369 10.299 11.4731 10.1628 10.9644C10.0266 10.4558 10.0267 9.92028 10.163 9.41168C10.2994 8.90308 10.5672 8.43932 10.9395 8.06701L13.68 5.32501C14.2429 4.76209 15.0064 4.44584 15.8025 4.44584C16.5986 4.44584 17.3621 4.76209 17.925 5.32501C18.4879 5.88793 18.8042 6.65142 18.8042 7.44751C18.8042 8.2436 18.4879 9.00709 17.925 9.57001L16.7355 10.758C16.9035 11.388 16.968 12.0405 16.9275 12.6885L18.9855 10.6305C19.8295 9.78652 20.3036 8.64183 20.3036 7.44826C20.3036 6.25468 19.8295 5.10999 18.9855 4.26601C18.1415 3.42202 16.9968 2.94788 15.8033 2.94788C14.6097 2.94788 13.465 3.42202 12.621 4.26601L9.87901 7.00801Z" fill="white"/>
</svg>
