<svg width="24" height="23" viewBox="0 0 24 23" fill="none" xmlns="http://www.w3.org/2000/svg">
<g clip-path="url(#clip0_54_156)">
<path d="M7.72487 21.5625C16.4045 21.5625 21.1526 14.3707 21.1526 8.14489C21.1526 7.94364 21.1526 7.73952 21.1439 7.53827C22.0683 6.86909 22.8661 6.04061 23.5 5.09164C22.6365 5.47237 21.7215 5.72329 20.7846 5.83627C21.7715 5.24637 22.5106 4.31822 22.8646 3.22433C21.9374 3.77364 20.9226 4.15924 19.8646 4.36427C19.1533 3.60674 18.212 3.1049 17.1866 2.93648C16.1612 2.76807 15.1089 2.94247 14.1927 3.43268C13.2764 3.92289 12.5474 4.70155 12.1185 5.64804C11.6896 6.59454 11.5848 7.65605 11.8203 8.66814C9.944 8.57406 8.10842 8.08663 6.43262 7.23746C4.75682 6.38829 3.27823 5.19636 2.09275 3.73896C1.49093 4.77839 1.30726 6.00791 1.57905 7.17784C1.85085 8.34777 2.55772 9.37041 3.55612 10.0381C2.80796 10.0127 2.07625 9.81176 1.42 9.45158V9.51627C1.42129 10.6051 1.7985 11.6602 2.48788 12.503C3.17726 13.3459 4.13651 13.9249 5.2035 14.1421C4.7985 14.2537 4.38014 14.3093 3.96006 14.3075C3.66391 14.3084 3.36836 14.2809 3.07744 14.2255C3.37901 15.1629 3.96621 15.9824 4.75679 16.5693C5.54738 17.1563 6.50176 17.4812 7.48625 17.4987C5.8138 18.8123 3.74789 19.5247 1.62125 19.5213C1.24652 19.5229 0.872058 19.5012 0.5 19.4566C2.65843 20.8326 5.16512 21.5633 7.72487 21.5625Z" fill="white"/>
</g>
<defs>
<clipPath id="clip0_54_156">
<rect width="23" height="23" fill="white" transform="translate(0.5)"/>
</clipPath>
</defs>
</svg>
